<?xml version="1.0" encoding="UTF-8"?>
<svg version="1.1" viewBox="0 0 900 900" width="1280" height="1280" xmlns="http://www.w3.org/2000/svg">
<path transform="translate(0)" d="m0 0h900v900h-900z"/>
<path transform="translate(228,247)" d="m0 0h26l29 4 28 7 28 10 21 9 25 12 23 12 23 14 21 14 11 8h-3l-18-11-21-12-22-12-24-11-26-10-27-8-24-5-11-1h-27l-13 2-13 5-10 6-7 6-7 11-3 10-1 5v18l4 18 4 12 9 20 13 22 12 17 10 13 9 11 12 14 7 7 7 8 9 9 8 7 11 10 8 7 11 9 14 11 19 14 15 10 21 13 17 10 23 12 25 12 23 9 27 9 25 6 21 3h27l18-4 12-6 10-9 6-11 2-7 1-8 3-2 1 4v12l-3 16-6 12-9 10-8 7-16 7-12 3-7 1h-35l-22-3-22-5-24-7-35-13-27-13-16-8-17-9-20-12-27-18-18-13-18-14-15-13-11-9-8-8-8-7-24-24-7-8-13-15-12-15-14-19-12-19-10-18-8-17-7-22-3-17v-14l3-16 4-9 7-11 8-8 11-7 16-6 14-3z" fill="#fff"/>
<path transform="translate(600,366)" d="m0 0 2 1v191l-1 1h-49v-85l-8 7-7 8-7 7-7 8-11 11-6 1-22-22-7-8-10-10v-2h-2v85h-41l-7-4-2-2v-186h19l5 5 12 13 7 8 12 13 12 14 15 16 11 12 5-5 16-17 14-15 9-10 7-8 14-15 5-6h2l2-4 1-1z" fill="#fff"/>
<path transform="translate(672,367)" d="m0 0h27l17 4 16 8 12 11 7 11 4 10 1 5v10l-11 1h-33l-6-12-8-4-4-1h-15l-9 3-7 6-2 4v9l5 6 11 4 34 5 17 4 10 4 11 8 7 9 4 9 2 8v20l-4 13-7 11-5 6-13 9-14 6-16 4-9 1h-15l-17-3-12-4-15-8-9-8-7-10-5-12-2-11v-5h46l4 9 6 4 9 3 5 1h12l12-3 7-5 2-3v-8l-3-5-8-4-8-2-29-3-16-4-16-8-9-8-7-12-4-16v-16l3-12 6-12 9-10 10-7 12-6z" fill="#fff"/>
<path transform="translate(254,367)" d="m0 0h49l1 1v72l20-3 12-5 8-7 5-10 3-14 2-34h51v15l-2 29-4 17-8 16-6 8-11 11-5 3 2 6 32 52 1 2v21l-22-14-19-14-14-11-13-11-8-7-10-9-15-14-9-9-7-8-7-7-9-11-13-16-4-6z" fill="#fff"/>
<path transform="translate(225,235)" d="m0 0h9l8 1v1l-21 1-15 2-17 6-15 8-10 9-8 11-6 15-2 9v30l5 22 8 22 8 16 8 15 13 20 8 11 9 12 12 14 9 11 12 12 6 7 8 7 17 17 8 7 15 13 14 11 15 12 19 13 15 10 24 15 29 16 22 11 25 11 27 10 23 7 28 6 23 3h25l21-4 17-6 11-7 10-9 6-7 7-14 5-19h1l-1 13-3 12-6 12-11 12-8 7-14 7-15 5-19 3h-30l-21-2-24-5-26-7-29-10-27-12-25-12-23-13-20-12-24-16-18-13-9-7-3-2-1 6h-50l-1-50-2-4-4-2-21-21-7-8-9-10-9-11-14-18-14-21-10-17-8-16-8-19-7-23-2-11-1-18 2-16 4-13 6-11 7-9 7-7 11-7 11-5 13-4 12-2z" fill="#fff"/>
</svg>
